<svg xmlns="http://www.w3.org/2000/svg" version="1.1" xmlns:xlink="http://www.w3.org/1999/xlink" xmlns:svgjs="http://svgjs.dev/svgjs" width="1440" height="560" preserveAspectRatio="none" viewBox="0 0 1440 560"><g mask="url(&quot;#SvgjsMask1069&quot;)" fill="none"><rect width="1440" height="560" x="0" y="0" fill="rgba(209, 218, 242, 1)"></rect><path d="M1560 560L0 560 L0 351.06Q65.48 296.54, 120 362.02Q171.57 341.59, 192 393.16Q210.38 291.55, 312 309.93Q355.08 281.01, 384 324.09Q430.56 298.65, 456 345.21Q498.25 267.46, 576 309.71Q642.39 256.11, 696 322.5Q762.88 317.38, 768 384.25Q838.57 334.82, 888 405.39Q918.42 315.81, 1008 346.24Q1055.8 274.04, 1128 321.84Q1170.28 292.12, 1200 334.39Q1276.99 291.38, 1320 368.38Q1385.35 313.73, 1440 379.07Q1452 271.06, 1560 283.06z" fill="rgba(246, 236, 50, 1)"></path><path d="M1536 560L0 560 L0 437.79Q21.32 387.12, 72 408.44Q94.21 358.65, 144 380.86Q228.63 345.49, 264 430.11Q352.18 398.29, 384 486.47Q406.99 437.46, 456 460.45Q478.4 362.85, 576 385.25Q644 333.25, 696 401.24Q796.87 382.11, 816 482.98Q834.72 429.7, 888 448.42Q972.32 412.74, 1008 497.06Q1030.16 447.23, 1080 469.39Q1089.99 407.38, 1152 417.37Q1219.72 365.09, 1272 432.8Q1328.2 417, 1344 473.2Q1352.47 409.67, 1416 418.14Q1469.67 351.81, 1536 405.49z" fill="rgba(25, 59, 138, 1)"></path><path d="M1488 560L0 560 L0 499.53Q90.35 469.88, 120 560.22Q142.64 462.86, 240 485.5Q306.22 431.72, 360 497.94Q459.56 477.5, 480 577.07Q482.19 507.26, 552 509.45Q592.16 429.61, 672 469.77Q718.34 444.11, 744 490.45Q826.57 501.02, 816 583.59Q795.36 490.95, 888 470.31Q946.32 456.63, 960 514.96Q988.48 471.44, 1032 499.92Q1060.1 456.01, 1104 484.11Q1202.56 462.67, 1224 561.24Q1235.55 500.79, 1296 512.34Q1312.78 457.12, 1368 473.9Q1435.53 421.43, 1488 488.96z" fill="rgba(209, 218, 242, 1)"></path></g><defs><mask id="SvgjsMask1069"><rect width="1440" height="560" fill="#ffffff"></rect></mask></defs></svg>