<svg xmlns="http://www.w3.org/2000/svg" version="1.1" xmlns:xlink="http://www.w3.org/1999/xlink" xmlns:svgjs="http://svgjs.dev/svgjs" width="1440" height="560" preserveAspectRatio="none" viewBox="0 0 1440 560"><g mask="url(&quot;#SvgjsMask1071&quot;)" fill="none"><rect width="1440" height="560" x="0" y="0" fill="rgba(215, 232, 239, 1)"></rect><path d="M1063.78 547.94 a20.42 20.42 0 1 0 40.84 0 a20.42 20.42 0 1 0 -40.84 0z" fill="rgba(255, 222, 89, 1)"></path><path d="M459.91 101.85a54.77 54.77 0 1 0 84.13-70.15z" stroke="rgba(255, 49, 49, 1)"></path><path d="M868.81 51.57L915.94 51.57L915.94 100.7L868.81 100.7z" fill="rgba(19, 77, 202, 1)"></path><path d="M952.51 213.44L998.63 213.44L998.63 259.56L952.51 259.56z" fill="rgba(216, 0, 0, 1)"></path><path d="M652.55 198.99 a44.94 44.94 0 1 0 89.88 0 a44.94 44.94 0 1 0 -89.88 0z" fill="rgba(255, 222, 89, 1)"></path><path d="M776.66 271.45a41.35 41.35 0 1 0-82.5 5.77z" fill="rgba(19, 77, 202, 1)"></path><path d="M-0.01 557.97 a1.04 1.04 0 1 0 2.08 0 a1.04 1.04 0 1 0 -2.08 0z" fill="rgba(255, 49, 49, 1)"></path><path d="M136.25 574.36a47.82 47.82 0 1 0-50.54-81.2z" stroke="rgba(255, 49, 49, 1)"></path><path d="M305.26 425.67L318.99 425.67L318.99 475.89L305.26 475.89z" stroke="rgba(255, 49, 49, 1)"></path><path d="M285.24 6.44 a12.54 12.54 0 1 0 25.08 0 a12.54 12.54 0 1 0 -25.08 0z" stroke="rgba(19, 77, 202, 1)"></path><path d="M471.84 522.04L492.73 522.04L492.73 542.93L471.84 542.93z" stroke="rgba(255, 49, 49, 1)"></path><path d="M864.8 327.09L906.7 327.09L906.7 368.99L864.8 368.99z" stroke="rgba(19, 77, 202, 1)"></path><path d="M218.79 446.07L261.07 446.07L261.07 488.35L218.79 488.35z" fill="rgba(19, 77, 202, 1)"></path><path d="M802.45 353.64L831.67 353.64L831.67 382.86L802.45 382.86z" fill="rgba(19, 77, 202, 1)"></path><path d="M259.94 107.87 a31.28 31.28 0 1 0 62.56 0 a31.28 31.28 0 1 0 -62.56 0z" fill="rgba(255, 49, 49, 1)"></path><path d="M1168.66 206.62a27.7 27.7 0 1 0-33.32-44.25z" fill="rgba(19, 77, 202, 1)"></path><path d="M631.32 530.65L679.51 530.65L679.51 582.49L631.32 582.49z" stroke="rgba(216, 0, 0, 1)"></path><path d="M170.75 322.77L222.66 322.77L222.66 374.68L170.75 374.68z" fill="rgba(255, 222, 89, 1)"></path><path d="M942.27 368.35L994.08 368.35L994.08 420.16L942.27 420.16z" stroke="rgba(255, 49, 49, 1)"></path><path d="M1212.45 484.95 a25.28 25.28 0 1 0 50.56 0 a25.28 25.28 0 1 0 -50.56 0z" stroke="rgba(255, 49, 49, 1)"></path><path d="M672.5 85.98L694.3 85.98L694.3 92.81L672.5 92.81z" stroke="rgba(216, 0, 0, 1)"></path><path d="M138.65 208.92a53.59 53.59 0 1 0 39.37 99.68z" stroke="rgba(255, 222, 89, 1)"></path><path d="M1417.81 251.33a12.8 12.8 0 1 0-24.23 8.28z" fill="rgba(216, 0, 0, 1)"></path><path d="M987.58 428.66L1025.64 428.66L1025.64 466.72L987.58 466.72z" fill="rgba(255, 222, 89, 1)"></path><path d="M511.11 215.67L524.92 215.67L524.92 229.48L511.11 229.48z" stroke="rgba(255, 49, 49, 1)"></path><path d="M712.08 494.95L732.4 494.95L732.4 526.73L712.08 526.73z" fill="rgba(216, 0, 0, 1)"></path><path d="M352.34 428.42 a30.08 30.08 0 1 0 60.16 0 a30.08 30.08 0 1 0 -60.16 0z" fill="rgba(19, 77, 202, 1)"></path><path d="M1247 70.56L1263.65 70.56L1263.65 87.21L1247 87.21z" stroke="rgba(19, 77, 202, 1)"></path><path d="M1276.76 315.64L1291.5 315.64L1291.5 329.69L1276.76 329.69z" stroke="rgba(255, 49, 49, 1)"></path><path d="M828.5 252.08L834.8 252.08L834.8 256.13L828.5 256.13z" stroke="rgba(216, 0, 0, 1)"></path><path d="M215.44 418.32L220.4 418.32L220.4 423.28L215.44 423.28z" fill="rgba(255, 222, 89, 1)"></path><path d="M69.97 194.56L103.19 194.56L103.19 201.2L69.97 201.2z" fill="rgba(19, 77, 202, 1)"></path><path d="M576.51 32.22L626.02 32.22L626.02 81.73L576.51 81.73z" stroke="rgba(216, 0, 0, 1)"></path></g><defs><mask id="SvgjsMask1071"><rect width="1440" height="560" fill="#ffffff"></rect></mask></defs></svg>