<svg xmlns="http://www.w3.org/2000/svg" version="1.1" xmlns:xlink="http://www.w3.org/1999/xlink" xmlns:svgjs="http://svgjs.dev/svgjs" width="1024" height="1024" preserveAspectRatio="none" viewBox="0 0 1024 1024"><g mask="url(&quot;#SvgjsMask1162&quot;)" fill="none"><rect width="1024" height="1024" x="0" y="0" fill="rgba(215, 232, 239, 1)"></rect><path d="M523.7 820.07 a17.07 17.07 0 1 0 34.14 0 a17.07 17.07 0 1 0 -34.14 0z" fill="rgba(255, 222, 89, 1)"></path><path d="M437.99 41.31L538.31 41.31L538.31 141.63L437.99 141.63z" stroke="rgba(255, 222, 89, 1)"></path><path d="M491.09 902.97L569.56 902.97L569.56 981.44L491.09 981.44z" fill="rgba(255, 222, 89, 1)"></path><path d="M484.67 559.63L532.47 559.63L532.47 617.9L484.67 617.9z" fill="rgba(255, 49, 49, 1)"></path><path d="M-76.32 377.27 a80.12 80.12 0 1 0 160.24 0 a80.12 80.12 0 1 0 -160.24 0z" fill="rgba(19, 77, 202, 1)"></path><path d="M447.76 272.89 a27.31 27.31 0 1 0 54.62 0 a27.31 27.31 0 1 0 -54.62 0z" stroke="rgba(19, 77, 202, 1)"></path><path d="M344.58 52.32L362.93 52.32L362.93 138.34L344.58 138.34z" fill="rgba(255, 222, 89, 1)"></path><path d="M953.52 141.06L1013.44 141.06L1013.44 221.43L953.52 221.43z" stroke="rgba(216, 0, 0, 1)"></path><path d="M356.44 516.35L434.87 516.35L434.87 594.78L356.44 594.78z" stroke="rgba(19, 77, 202, 1)"></path><path d="M332.75 404.62L404.35 404.62L404.35 476.22L332.75 476.22z" stroke="rgba(255, 49, 49, 1)"></path><path d="M608.6 793.19 a100.17 100.17 0 1 0 200.34 0 a100.17 100.17 0 1 0 -200.34 0z" fill="rgba(216, 0, 0, 1)"></path><path d="M779.42 642.81L853.09 642.81L853.09 716.48L779.42 716.48z" fill="rgba(19, 77, 202, 1)"></path><path d="M259.67 536.1L305.51 536.1L305.51 581.94L259.67 581.94z" fill="rgba(19, 77, 202, 1)"></path></g><defs><mask id="SvgjsMask1162"><rect width="1024" height="1024" fill="#ffffff"></rect></mask></defs></svg>